HIERARCHY
ROOT SimulationBone
{
	OFFSET 0.000000 0.000000 0.000000
	CHANNELS 6 Xposition Yposition Zposition Zrotation Yrotation Xrotation 
	JOINT Hips
	{
		OFFSET 0.000000 0.000000 0.000000
		CHANNELS 6 Xposition Yposition Zposition Zrotation Yrotation Xrotation 
		JOINT LeftUpLeg
		{
			OFFSET 0.103457 1.857824 10.548504
			CHANNELS 3 Zrotation Yrotation Xrotation
			JOINT LeftLeg
			{
				OFFSET 43.500000 -0.000038 -0.000017
				CHANNELS 3 Zrotation Yrotation Xrotation
				JOINT LeftFoot
				{
					OFFSET 42.372200 0.000011 0.000019
					CHANNELS 3 Zrotation Yrotation Xrotation
					JOINT LeftToe
					{
						OFFSET 17.300011 0.000002 -0.000008
						CHANNELS 3 Zrotation Yrotation Xrotation
						End Site
						{
							OFFSET 0.000000 0.000000 0.000000
						}
					}
				}
			}
		}
		JOINT RightUpLeg
		{
			OFFSET 0.103457 1.857822 -10.548492
			CHANNELS 3 Zrotation Yrotation Xrotation
			JOINT RightLeg
			{
				OFFSET 43.500038 -0.000027 0.000036
				CHANNELS 3 Zrotation Yrotation Xrotation
				JOINT RightFoot
				{
					OFFSET 42.372261 0.000015 0.000010
					CHANNELS 3 Zrotation Yrotation Xrotation
					JOINT RightToe
					{
						OFFSET 17.299988 -0.000006 0.000008
						CHANNELS 3 Zrotation Yrotation Xrotation
						End Site
						{
							OFFSET 0.000000 0.000000 0.000000
						}
					}
				}
			}
		}
		JOINT Spine
		{
			OFFSET 6.901965 -2.603737 0.000006
			CHANNELS 3 Zrotation Yrotation Xrotation
			JOINT Spine1
			{
				OFFSET 12.588104 -0.000005 0.000007
				CHANNELS 3 Zrotation Yrotation Xrotation
				JOINT Spine2
				{
					OFFSET 12.343202 0.000026 -0.000008
					CHANNELS 3 Zrotation Yrotation Xrotation
					JOINT Neck
					{
						OFFSET 25.832890 -0.000029 -0.000007
						CHANNELS 3 Zrotation Yrotation Xrotation
						JOINT Head
						{
							OFFSET 11.766619 0.000021 0.000012
							CHANNELS 3 Zrotation Yrotation Xrotation
							End Site
							{
								OFFSET 0.000000 0.000000 0.000000
							}
						}
					}
					JOINT LeftShoulder
					{
						OFFSET 19.745909 -1.480377 6.000106
						CHANNELS 3 Zrotation Yrotation Xrotation
						JOINT LeftArm
						{
							OFFSET 11.284110 -0.000009 -0.000020
							CHANNELS 3 Zrotation Yrotation Xrotation
							JOINT LeftForeArm
							{
								OFFSET 33.000053 0.000014 0.000021
								CHANNELS 3 Zrotation Yrotation Xrotation
								JOINT LeftHand
								{
									OFFSET 25.200008 0.000006 -0.000004
									CHANNELS 3 Zrotation Yrotation Xrotation
									End Site
									{
										OFFSET 0.000000 0.000000 0.000000
									}
								}
							}
						}
					}
					JOINT RightShoulder
					{
						OFFSET 19.746101 -1.480381 -6.000081
						CHANNELS 3 Zrotation Yrotation Xrotation
						JOINT RightArm
						{
							OFFSET 11.284131 -0.000022 0.000003
							CHANNELS 3 Zrotation Yrotation Xrotation
							JOINT RightForeArm
							{
								OFFSET 33.000095 0.000014 0.000005
								CHANNELS 3 Zrotation Yrotation Xrotation
								JOINT RightHand
								{
									OFFSET 25.199774 0.000153 0.000423
									CHANNELS 3 Zrotation Yrotation Xrotation
									End Site
									{
										OFFSET 0.000000 0.000000 0.000000
									}
								}
							}
						}
					}
				}
			}
		}
	}
}
MOTION
Frames: 10
Frame Time: 0.016667
-182.956557 0.000000 174.122597 0.000000 106.740868 0.000000 -3.517430 86.219421 0.355659 92.529455 0.675115 -179.910822 149.900617 1.278184 -177.043940 -64.017518 -2.133972 1.232948 86.647000 -0.431713 1.840246 21.454550 0.003099 0.000001 -179.386886 -4.230395 -172.112175 -42.339607 -1.452070 -2.001956 95.231701 0.736329 -5.796034 21.454558 -0.003101 -0.000019 10.613428 0.067650 1.302822 11.214110 0.008591 2.606005 10.896395 0.024446 2.605914 7.304939 -0.349952 -6.793345 -19.138299 -1.142116 -6.700184 -172.166023 -81.415137 -9.499022 -6.168002 61.679673 49.722132 -36.991088 -16.361385 1.470288 2.099584 -8.897863 -2.341250 163.698993 73.471562 -15.320054 -15.267302 -48.095172 -21.200811 -59.557159 22.086281 -2.601620 -3.070807 16.441302 -15.875574 
-184.078452 0.000000 171.146314 0.000000 106.650015 0.000000 -3.226118 86.967825 0.465814 92.343174 0.828905 -179.424999 149.933950 1.636129 -177.146136 -57.010920 -2.119431 0.770792 85.985717 -0.260563 1.011936 21.454549 0.003100 0.000002 -175.932841 -4.403038 -173.309381 -38.787703 -0.645620 -1.734183 91.784825 0.503785 -4.738824 21.454555 -0.003101 -0.000019 10.390111 0.049720 1.454909 10.766911 -0.036269 2.908072 10.449275 -0.018586 2.908241 8.011219 -0.578099 -7.291693 -18.940475 -0.488850 -7.499343 -171.643451 -81.831654 -10.030554 -5.092316 62.457925 51.289860 -35.209317 -16.024099 1.406360 2.164387 -9.847834 -4.618034 163.741120 73.705675 -15.266879 -14.215767 -48.497019 -21.982817 -60.764260 21.926448 -2.637874 -3.038341 16.563910 -15.277873 
-185.186900 0.000000 168.158494 0.000000 106.597062 0.000000 -2.907006 87.623466 0.571981 92.044632 0.965682 -178.997109 150.228876 2.035197 -177.593156 -49.493264 -1.969587 0.056798 85.222141 0.187788 0.749613 21.454551 0.003100 0.000001 -172.875435 -4.465906 -174.077043 -35.661489 -0.148567 -1.761893 87.818425 0.592273 -3.371976 21.454553 -0.003102 -0.000017 10.133043 0.026894 1.593454 10.252032 -0.087605 3.182966 9.934472 -0.068254 3.183434 8.526996 -0.915115 -7.767301 -18.559101 0.162538 -8.274786 -170.542951 -82.092042 -11.145998 -4.305253 63.123391 52.638500 -33.264970 -15.597811 1.335132 2.465090 -10.656186 -5.847169 163.863040 74.011707 -15.128890 -13.207916 -48.934896 -23.044309 -61.526596 21.731755 -2.653848 -3.077433 16.874220 -14.283286 
-186.278075 0.000000 165.167106 0.000000 106.589354 0.000000 -2.616648 88.186284 0.625864 91.574645 0.898501 -178.762755 150.751111 2.616579 -178.445963 -41.549837 -1.867422 -0.791547 84.557050 0.925044 1.495061 21.454552 0.003098 -0.000001 -170.406964 -4.146385 -173.757392 -33.156568 -0.267515 -2.561470 83.600000 1.367835 -1.784988 21.454553 -0.003106 -0.000013 9.843858 -0.050083 1.720170 9.671272 -0.243826 3.430087 9.353793 -0.222978 3.431491 8.856866 -1.256733 -8.198457 -18.034968 0.707833 -8.952970 -169.391392 -82.006882 -12.312309 -3.493593 63.356544 53.510148 -31.641437 -15.062971 1.265745 2.963561 -10.782598 -5.231713 164.121166 74.402212 -14.848094 -12.374546 -49.477107 -24.142584 -61.986527 21.550711 -2.659550 -3.420801 17.174122 -13.035118 
-187.351179 0.000000 162.177094 0.000000 106.632103 0.000000 -2.287413 88.583122 0.619795 91.182715 0.728857 -178.715330 151.616087 3.240299 -179.413483 -33.700443 -1.976708 -1.653467 84.127979 1.561582 1.600688 21.454553 0.003095 -0.000002 -168.264961 -3.489599 -173.237517 -31.424692 -0.396369 -3.693293 79.597856 2.622856 0.314826 21.454557 -0.003109 -0.000012 9.573825 -0.170184 1.839756 9.127182 -0.484939 3.660329 8.809779 -0.462699 3.663183 9.181054 -1.261009 -8.539597 -17.540059 1.069524 -9.435251 -168.160867 -81.869829 -13.559104 -2.744587 63.422061 54.105946 -30.157767 -14.559665 1.204473 3.372544 -10.553761 -3.821583 164.301989 74.714978 -14.649930 -11.691336 -50.051308 -25.204235 -62.064480 21.343090 -2.647871 -3.770063 17.631430 -11.998211 
-188.402810 0.000000 159.194303 0.000000 106.726055 0.000000 -1.859319 88.749214 0.566079 91.113674 0.614608 -178.807463 152.873627 3.729801 179.815024 -26.609131 -2.396303 -2.420201 84.010687 1.722378 -0.312574 21.454552 0.003093 -0.000002 -166.221474 -2.585561 -173.469253 -30.637635 -0.008736 -4.625141 76.211537 4.111435 3.207468 21.454562 -0.003109 -0.000017 9.373627 -0.302010 1.953077 8.721926 -0.750304 3.877860 8.404587 -0.726746 3.882312 9.633290 -0.713901 -8.746071 -17.212705 1.240922 -9.667348 -166.600930 -81.953458 -15.139155 -2.183868 63.617180 54.676355 -28.572930 -14.217847 1.153523 3.394080 -10.380683 -2.812435 164.183529 74.821322 -14.766500 -11.130123 -50.561256 -26.202133 -61.699861 21.080619 -2.614322 -3.777692 18.315693 -11.535885 
-189.427843 0.000000 156.226901 0.000000 106.869675 0.000000 -1.435807 88.726463 0.524549 91.277967 0.650777 -178.971367 154.118600 4.045397 179.276579 -21.130184 -2.863690 -2.883579 84.254269 1.603305 -2.486150 21.454553 0.003093 -0.000000 -164.584746 -1.711703 -174.107765 -31.002484 0.398628 -5.563607 73.359181 5.912829 6.502987 21.454563 -0.003107 -0.000022 9.241694 -0.392383 2.044161 8.454319 -0.932964 4.054274 8.137037 -0.908341 4.059829 9.998785 -0.158216 -8.814577 -16.928195 1.488400 -9.785563 -164.955091 -81.975922 -16.805892 -1.864319 63.791574 55.040692 -27.071903 -13.968951 1.110221 2.933720 -10.258746 -2.103526 163.883053 74.898163 -15.070069 -10.776795 -50.963254 -27.147766 -61.127952 20.872163 -2.577985 -3.439037 18.604978 -11.296117 
-190.424046 0.000000 153.283100 0.000000 107.063840 0.000000 -1.143654 88.575332 0.544147 91.526910 0.843127 -179.163170 154.927068 4.224854 178.880008 -18.027860 -3.118170 -2.841530 84.618872 1.479817 -2.992106 21.454554 0.003096 0.000002 -163.714338 -1.114813 -174.632882 -32.683785 0.222795 -6.801477 70.860462 8.091513 9.719339 21.454556 -0.003106 -0.000020 9.163708 -0.410491 2.095801 8.297279 -0.970079 4.156867 7.980050 -0.944846 4.162653 10.079548 -0.093090 -8.773789 -16.555304 1.988450 -9.908789 -163.770584 -81.661551 -18.007880 -1.768748 63.759414 54.980390 -25.917124 -13.724085 1.074731 2.099691 -10.091970 -1.393262 163.530402 75.102598 -15.420959 -10.693875 -51.215915 -28.057330 -60.577616 20.813478 -2.553078 -2.871965 17.991537 -10.888654 
-191.391169 0.000000 150.369605 0.000000 107.309745 0.000000 -1.033446 88.323868 0.575552 91.815901 0.904340 -179.451737 155.266510 4.508300 178.316514 -17.368794 -3.122947 -2.521779 83.773806 1.375438 -2.348494 21.454555 0.003098 0.000003 -163.726000 -0.546709 -175.016248 -35.704239 -0.547130 -8.191335 68.647956 10.468079 12.760252 21.454550 -0.003108 -0.000015 9.125917 -0.436858 2.102996 8.220746 -1.021874 4.169757 7.903528 -0.996568 4.175859 10.082957 -0.083619 -8.692754 -16.190209 2.273375 -9.913113 -163.209991 -81.291450 -18.579064 -1.599144 63.636160 54.628554 -25.251497 -13.510557 1.050976 1.581500 -9.822658 -0.870457 162.980962 75.205618 -15.977036 -10.733947 -51.228323 -28.931451 -59.963452 20.808752 -2.528283 -2.332284 17.107898 -10.440919 
-192.329368 0.000000 147.491588 0.000000 107.602939 0.000000 -1.097029 87.960812 0.557313 92.158675 0.566966 -179.878578 155.187920 5.141882 177.391483 -19.040582 -2.885024 -2.249485 80.847870 1.380022 -1.267407 21.454551 0.003097 0.000002 -164.582634 0.300255 -175.361662 -40.002708 -1.692241 -9.441700 66.731176 12.769189 15.563061 21.454551 -0.003113 -0.000014 9.121954 -0.554025 2.062967 8.209245 -1.252852 4.081645 7.891957 -1.228067 4.089135 10.232141 0.349338 -8.630510 -15.970340 1.944360 -9.696880 -163.139321 -81.178350 -18.651685 -1.128366 63.550652 54.203696 -25.128307 -13.369054 1.040342 1.911902 -9.489806 -0.802088 162.200341 75.005918 -16.783013 -10.767427 -50.992543 -29.725269 -59.179223 20.760863 -2.494266 -2.000790 16.580048 -10.099544 
